Screens
 
http://bayimg.com/AAoAMAadp
 
http://bayimg.com/BAoAAaADp
 
http://bayimg.com/baoacAadP
 
http://bayimg.com/BaOadAADp

Seeding Time 24/7

Don't Forget To Say Thanks If You Like My Post



-=Media Info=-


Format : Windows Media
File size : 407 MiB
Duration : 27mn 0s
Overall bit rate mode : Constant
Overall bit rate : 2 108 Kbps
Maximum Overall bit rate : 2 116 Kbps
Encoded date : UTC 2011-11-08 00:11:35.792

Video
ID : 2
Format : VC-1
Format profile : MP@HL
Codec ID : WMV3
Codec ID/Info : Windows Media Video 9
Codec ID/Hint : WMV3
Description of the codec : Windows Media Video 9 - Professional
Duration : 27mn 0s
Bit rate mode : Constant
Bit rate : 2 000 Kbps
Width : 850 pixels
Height : 480 pixels
Display aspect ratio : 16:9
Frame rate : 29.970 fps
Bit depth : 8 bits
Scan type : Progressive
Compression mode : Lossy
Bits/(Pixel*Frame) : 0.164
Stream size : 386 MiB (95%)
Language : English (US)

Audio
ID : 1
Format : WMA
Format version : Version 2
Codec ID : 161
Codec ID/Info : Windows Media Audio
Description of the codec : Windows Media Audio 9.2 - 96 kbps, 48 kHz, stereo (A/V) 1-pass CBR
Duration : 27mn 0s
Bit rate mode : Constant
Bit rate : 96.0 Kbps
Channel(s) : 2 channels
Sampling rate : 48.0 KHz
Bit depth : 16 bits
Stream size : 18.5 MiB (5%)
Language : English (US)